<?xml version="1.0" encoding="UTF-8" standalone="no"?>
<svg
   xmlns:dc="http://purl.org/dc/elements/1.1/"
   xmlns:cc="http://creativecommons.org/ns#"
   xmlns:rdf="http://www.w3.org/1999/02/22-rdf-syntax-ns#"
   xmlns:svg="http://www.w3.org/2000/svg"
   xmlns="http://www.w3.org/2000/svg"
   xmlns:sodipodi="http://sodipodi.sourceforge.net/DTD/sodipodi-0.dtd"
   xmlns:inkscape="http://www.inkscape.org/namespaces/inkscape"
   width="100mm"
   height="20mm"
   viewBox="0 0 100 20"
   version="1.1"
   id="svg8"
   inkscape:version="1.0.2-2 (e86c870879, 2021-01-15)"
   sodipodi:docname="Noctua001-LabelWhite.svg">
  <defs
     id="defs2" />
  <sodipodi:namedview
     id="base"
     pagecolor="#ffffff"
     bordercolor="#666666"
     borderopacity="1.0"
     inkscape:pageopacity="0.0"
     inkscape:pageshadow="2"
     inkscape:zoom="1.4"
     inkscape:cx="376.65509"
     inkscape:cy="-83.456744"
     inkscape:document-units="mm"
     inkscape:current-layer="layer2"
     showgrid="true"
     inkscape:pagecheckerboard="false"
     inkscape:showpageshadow="true"
     showborder="true"
     inkscape:window-width="2560"
     inkscape:window-height="1017"
     inkscape:window-x="-8"
     inkscape:window-y="-8"
     inkscape:window-maximized="1"
     inkscape:document-rotation="0"
     inkscape:snap-nodes="false">
    <inkscape:grid
       type="xygrid"
       id="grid4131"
       empcolor="#ff0000"
       empopacity="0.74509804"
       empspacing="4"
       units="mm"
       spacingx="25"
       spacingy="25"
       color="#2c9000"
       opacity="0.2745098"
       enabled="true" />
    <inkscape:grid
       type="xygrid"
       id="grid4133"
       units="mm"
       spacingx="1"
       spacingy="1"
       color="#0000ff"
       opacity="0.23529412"
       empcolor="#000000"
       empopacity="0.28235294"
       empspacing="10"
       enabled="false" />
    <inkscape:grid
       type="axonomgrid"
       id="grid4170"
       units="mm"
       empspacing="10"
       empcolor="#000000"
       empopacity="0.39215686"
       color="#3f3fff"
       opacity="0.31372549"
       enabled="false" />
  </sodipodi:namedview>
  <metadata
     id="metadata5">
    <rdf:RDF>
      <cc:Work
         rdf:about="">
        <dc:format>image/svg+xml</dc:format>
        <dc:type
           rdf:resource="http://purl.org/dc/dcmitype/StillImage" />
        <dc:title></dc:title>
      </cc:Work>
    </rdf:RDF>
  </metadata>
  <g
     inkscape:groupmode="layer"
     id="layer2"
     inkscape:label="Layer 1">
    <path
       style="color:#000000;font-style:normal;font-variant:normal;font-weight:normal;font-stretch:normal;font-size:medium;line-height:normal;font-family:sans-serif;font-variant-ligatures:normal;font-variant-position:normal;font-variant-caps:normal;font-variant-numeric:normal;font-variant-alternates:normal;font-variant-east-asian:normal;font-feature-settings:normal;font-variation-settings:normal;text-indent:0;text-align:start;text-decoration:none;text-decoration-line:none;text-decoration-style:solid;text-decoration-color:#000000;letter-spacing:normal;word-spacing:normal;text-transform:none;writing-mode:lr-tb;direction:ltr;text-orientation:mixed;dominant-baseline:auto;baseline-shift:baseline;text-anchor:start;white-space:normal;shape-padding:0;shape-margin:0;inline-size:0;clip-rule:nonzero;display:inline;overflow:visible;visibility:visible;opacity:1;isolation:auto;mix-blend-mode:normal;color-interpolation:sRGB;color-interpolation-filters:linearRGB;solid-color:#000000;solid-opacity:1;vector-effect:none;fill:#eaecfa;fill-opacity:1;fill-rule:nonzero;stroke:none;stroke-width:0.118084;stroke-linecap:butt;stroke-linejoin:miter;stroke-miterlimit:4;stroke-dasharray:none;stroke-dashoffset:0;stroke-opacity:1;color-rendering:auto;image-rendering:auto;shape-rendering:auto;text-rendering:auto;enable-background:accumulate;stop-color:#000000;stop-opacity:1"
       d="m 31.518671,18.839285 c -2.049063,-0.135072 -3.287846,-0.946581 -3.713579,-2.432751 -0.149708,-0.522631 -0.149256,-0.500613 -0.137417,-6.6078941 0.01213,-6.2849005 -8.91e-4,-5.8186727 0.184819,-6.3894076 0.349625,-1.0719793 1.245266,-1.8212821 2.52127,-2.1093241 1.171699,-0.2644883 2.770544,-0.2157391 3.785029,0.115428 1.126245,0.3676469 1.908194,1.1693891 2.188448,2.2438524 0.121701,0.4665921 0.122484,0.5064607 0.122871,6.3269202 3.56e-4,5.9487892 0.0019,5.8669452 -0.139843,6.4031042 -0.216989,0.819108 -0.764375,1.504714 -1.523373,1.908045 -0.429561,0.228265 -0.919698,0.382888 -1.476065,0.465659 -0.284542,0.04227 -1.244791,0.118401 -1.358584,0.10763 -0.02607,-0.0029 -0.230181,-0.01659 -0.453576,-0.03119 z m 1.418121,-1.512028 c 1.079566,-0.204794 1.670538,-0.780646 1.786605,-1.740896 0.01992,-0.164775 0.02778,-2.243863 0.0219,-5.7720985 L 34.73623,4.2996902 34.664098,4.0655781 C 34.513721,3.5784131 34.232258,3.207031 33.837717,2.9754296 33.362232,2.6963209 32.767602,2.5834923 31.893551,2.6065405 c -0.69394,0.01828 -1.042274,0.090064 -1.477284,0.3043308 -0.383029,0.1886631 -0.630359,0.4330127 -0.802437,0.7927464 -0.07461,0.1559978 -0.154594,0.3609579 -0.177728,0.4554758 -0.03451,0.1408276 -0.04212,1.1953031 -0.04212,5.8426355 0,5.355392 0.0038,5.682083 0.05597,5.873869 0.160877,0.583424 0.457639,0.949438 0.98605,1.216189 0.246656,0.124513 0.694946,0.244386 1.05388,0.281814 0.370993,0.03868 1.126015,0.01445 1.446778,-0.04632 z M 44.8755,18.839142 c -0.521785,-0.03602 -1.046786,-0.127027 -1.424199,-0.246851 -0.390644,-0.124037 -0.905773,-0.389348 -1.167812,-0.601475 -0.611853,-0.495317 -1.002444,-1.221779 -1.132554,-2.10644 -0.05858,-0.398001 -0.05897,-11.3954376 -5.88e-4,-11.7926533 0.06324,-0.4294113 0.153854,-0.7370597 0.316071,-1.0730352 0.612828,-1.2693188 1.896902,-1.890267 3.908913,-1.890267 1.510431,0 2.637023,0.3643557 3.35125,1.0838405 0.501019,0.5047131 0.746017,0.996793 0.88373,1.7749898 0.04721,0.2668214 0.05575,0.5222608 0.05821,1.7496615 l 0.0029,1.4372311 h -0.859326 -0.859212 l -0.0182,-1.4684768 C 47.914803,4.091998 47.914452,4.0884224 47.708159,3.6612825 47.583541,3.4032085 47.245346,3.0569774 46.984205,2.9201156 46.56076,2.6982016 46.0613,2.5968886 45.390754,2.5968886 c -1.387083,0 -2.177502,0.4647285 -2.474942,1.4551251 -0.05224,0.1741219 -0.05612,0.52313 -0.06437,5.8403543 -0.0098,6.331129 -0.0238,5.917721 0.21581,6.415693 0.307268,0.638736 0.92418,0.983857 1.915533,1.071626 1.030497,0.09124 1.922794,-0.135853 2.40372,-0.611738 0.209662,-0.207474 0.350018,-0.446596 0.459566,-0.782988 0.06627,-0.20354 0.07215,-0.284274 0.0839,-1.163848 l 0.01271,-0.945129 h 0.876905 0.8769 l -0.01862,0.89826 c -0.0104,0.494054 -0.03451,1.00872 -0.05385,1.14371 -0.163814,1.144025 -0.740715,1.979689 -1.689281,2.446993 -0.399946,0.197029 -0.9006,0.346186 -1.387916,0.413483 -0.253468,0.03508 -1.104004,0.099 -1.218508,0.09169 -0.03432,-0.0019 -0.23824,-0.01611 -0.453043,-0.03098 z m 22.948673,0.0019 c -2.012812,-0.150637 -3.053087,-1.057783 -3.303609,-2.880751 -0.03104,-0.22438 -0.03937,-1.833577 -0.03937,-7.3572157 V 1.5329024 h 0.859195 l 0.859203,-8.8e-6 0.01604,7.1637544 c 0.01525,6.845528 0.01872,7.172779 0.07391,7.36684 0.200207,0.704443 0.563706,1.085087 1.197332,1.253823 0.36812,0.09803 1.107921,0.09918 1.493884,0.0029 0.948056,-0.237919 1.982503,-1.124101 2.341615,-2.005997 l 0.09542,-0.234335 0.0084,-6.7721442 0.0084,-6.7721453 h 0.874496 0.874476 v 8.4670975 8.467136 h -0.354948 -0.355036 l -0.329048,-0.804579 c -0.250505,-0.612467 -0.342882,-0.806656 -0.387014,-0.813418 -0.04191,-0.0073 -0.111732,0.06731 -0.251545,0.265571 -0.228756,0.324265 -0.644821,0.747075 -0.993681,1.009763 -0.509528,0.38366 -1.186639,0.649098 -1.827768,0.716504 -0.329254,0.0346 -0.368162,0.03451 -0.859206,-0.0029 z m 13.450455,-3.39e-4 c -1.093492,-0.08674 -1.818823,-0.365405 -2.36917,-0.909993 -0.432114,-0.427637 -0.680489,-0.938702 -0.839161,-1.72663 -0.05084,-0.253881 -0.05668,-0.473956 -0.05668,-2.265199 0,-1.780703 0.0057,-2.013928 0.0562,-2.276171 0.28982,-1.507168 1.076846,-2.2740261 2.654297,-2.5862618 0.215667,-0.042671 0.56717,-0.053317 2.15595,-0.065121 1.846914,-0.013661 1.899246,-0.015699 1.931172,-0.075406 0.02203,-0.041875 0.0291,-0.7929056 0.02081,-2.364222 C 84.817743,4.5468458 84.809573,4.245301 84.764491,4.0737423 84.621271,3.5367894 84.282442,3.1160019 83.805586,2.8829012 83.412483,2.6907514 83.125438,2.6267077 82.563898,2.6059128 81.335993,2.5603984 80.539657,2.8979561 80.197762,3.6088 80.015093,3.988566 79.991149,4.156957 79.971706,5.198294 l -0.0176,0.9295018 h -0.859514 -0.859518 l 0.0176,-0.9607474 c 0.02241,-1.2563484 0.08748,-1.6333459 0.383591,-2.2417591 0.400676,-0.8224924 1.152005,-1.3871685 2.163839,-1.6262397 0.960821,-0.2270325 2.200036,-0.2264647 3.152321,0.00178 1.408155,0.3370045 2.245388,1.2005017 2.529634,2.6089711 0.04943,0.2453347 0.05434,0.8103032 0.06375,7.4126483 l 0.01028,7.147068 h -0.354706 -0.35463 l -0.325745,-0.80454 c -0.263533,-0.650944 -0.337699,-0.806044 -0.388226,-0.812423 -0.04754,-0.0073 -0.09692,0.04693 -0.203085,0.216076 -0.20078,0.319778 -0.754992,0.886084 -1.095238,1.119149 -0.540438,0.370167 -1.105624,0.587948 -1.701079,0.655495 -0.312259,0.03536 -0.386247,0.03528 -0.859195,-0.0029 z m 1.106163,-1.513518 c 0.462337,-0.124433 0.798079,-0.296462 1.221541,-0.625872 0.544139,-0.423324 0.946291,-0.947413 1.134421,-1.478414 l 0.08417,-0.237341 0.0094,-2.194711 c 0.0066,-1.519826 -8.74e-4,-2.213982 -0.0243,-2.257382 -0.03324,-0.06156 -0.06327,-0.06267 -1.696163,-0.062 -0.914457,3.54e-4 -1.756722,0.01422 -1.871718,0.03091 -0.827794,0.119732 -1.252854,0.525127 -1.457579,1.390134 -0.04528,0.190578 -0.05151,0.45379 -0.05151,2.046476 0,1.80195 8.75e-4,1.831751 0.07165,2.108978 0.254697,1.001415 0.83887,1.386247 2.037434,1.342181 0.197626,-0.0073 0.44231,-0.03555 0.543763,-0.06289 z m -68.936806,-7.3327403 -1.9e-5,-8.4749478 0.870077,0.00889 0.870061,0.0089 1.822489,4.1935768 c 1.002359,2.306468 2.270883,5.2269653 2.818915,6.4900093 0.548034,1.263039 1.015191,2.315668 1.038124,2.339189 0.02294,0.02351 0.05717,0.03328 0.07594,0.02152 0.02465,-0.01526 0.03422,-1.845288 0.03422,-6.532727 V 1.5371552 l 0.859231,-0.0089 0.859229,-0.00889 -1.9e-5,8.4749403 -1.5e-5,8.4749465 h -0.869826 -0.86981 l -0.03927,-0.08599 C 20.871672,18.291902 17.900802,11.455745 16.2798,7.7212491 15.746476,6.4925802 15.29625,5.4697316 15.279284,5.4482445 c -0.01697,-0.021473 -0.05025,-0.039034 -0.07393,-0.039034 -0.03647,0 -0.04304,1.0043514 -0.04304,6.5300025 v 6.53 h -0.859195 -0.859225 z m 42.554401,0.7453883 c 0,-7.0195197 -0.0048,-7.7313041 -0.04924,-7.7485237 -0.02711,-0.010462 -0.79342,-0.018989 -1.702784,-0.018989 h -1.65359 V 2.2535897 1.5349739 h 4.280428 4.2804 v 0.7186158 0.7186062 h -1.642372 c -1.072386,0 -1.663321,0.011267 -1.702755,0.032384 -0.05979,0.031851 -0.06073,0.1517398 -0.06073,7.7485171 v 7.716174 h -0.87476 -0.874844 z"
       id="path994" />
  </g>
</svg>
