<?xml version="1.0" encoding="UTF-8" standalone="no"?>
<svg
   xmlns:dc="http://purl.org/dc/elements/1.1/"
   xmlns:cc="http://creativecommons.org/ns#"
   xmlns:rdf="http://www.w3.org/1999/02/22-rdf-syntax-ns#"
   xmlns:svg="http://www.w3.org/2000/svg"
   xmlns="http://www.w3.org/2000/svg"
   xmlns:xlink="http://www.w3.org/1999/xlink"
   xmlns:sodipodi="http://sodipodi.sourceforge.net/DTD/sodipodi-0.dtd"
   xmlns:inkscape="http://www.inkscape.org/namespaces/inkscape"
   width="200mm"
   height="200mm"
   viewBox="0 0 200 200"
   version="1.1"
   id="svg8"
   inkscape:version="1.0.2-2 (e86c870879, 2021-01-15)"
   sodipodi:docname="Noctua001-SymbolWhite.svg">
  <defs
     id="defs2">
    <linearGradient
       inkscape:collect="always"
       id="linearGradient897">
      <stop
         style="stop-color:#e5e5e5;stop-opacity:1"
         offset="0"
         id="stop893" />
      <stop
         style="stop-color:#fefefe;stop-opacity:1"
         offset="1"
         id="stop895" />
    </linearGradient>
    <filter
       inkscape:collect="always"
       style="color-interpolation-filters:sRGB"
       id="filter869"
       x="-0.0060165812"
       width="1.0120332"
       y="-0.0062933991"
       height="1.0125868">
      <feGaussianBlur
         inkscape:collect="always"
         stdDeviation="0.19869603"
         id="feGaussianBlur871" />
    </filter>
    <filter
       inkscape:collect="always"
       style="color-interpolation-filters:sRGB"
       id="filter873"
       x="-0.0052730363"
       width="1.0105461"
       y="-0.0057014311"
       height="1.0114029">
      <feGaussianBlur
         inkscape:collect="always"
         stdDeviation="0.19869603"
         id="feGaussianBlur875" />
    </filter>
    <filter
       inkscape:collect="always"
       style="color-interpolation-filters:sRGB"
       id="filter877"
       x="-0.0034578187"
       width="1.0069156"
       y="-0.0030535178"
       height="1.006107">
      <feGaussianBlur
         inkscape:collect="always"
         stdDeviation="0.19869603"
         id="feGaussianBlur879" />
    </filter>
    <filter
       inkscape:collect="always"
       style="color-interpolation-filters:sRGB"
       id="filter881"
       x="-0.0050121999"
       width="1.0100244"
       y="-0.0071913409"
       height="1.0143827">
      <feGaussianBlur
         inkscape:collect="always"
         stdDeviation="0.19869603"
         id="feGaussianBlur883" />
    </filter>
    <filter
       inkscape:collect="always"
       style="color-interpolation-filters:sRGB"
       id="filter885"
       x="-0.0092849972"
       width="1.01857"
       y="-0.0093051859"
       height="1.0186104">
      <feGaussianBlur
         inkscape:collect="always"
         stdDeviation="0.19869603"
         id="feGaussianBlur887" />
    </filter>
    <filter
       inkscape:collect="always"
       style="color-interpolation-filters:sRGB"
       id="filter889"
       x="-0.022600361"
       width="1.0452007"
       y="-0.022600391"
       height="1.0452008">
      <feGaussianBlur
         inkscape:collect="always"
         stdDeviation="0.19869603"
         id="feGaussianBlur891" />
    </filter>
    <linearGradient
       inkscape:collect="always"
       xlink:href="#linearGradient897"
       id="linearGradient899"
       x1="248.60843"
       y1="270.11549"
       x2="270.66229"
       y2="270.11549"
       gradientUnits="userSpaceOnUse" />
  </defs>
  <sodipodi:namedview
     id="base"
     pagecolor="#ffffff"
     bordercolor="#666666"
     borderopacity="1.0"
     inkscape:pageopacity="0.0"
     inkscape:pageshadow="2"
     inkscape:zoom="0.35"
     inkscape:cx="-195.05113"
     inkscape:cy="-429.6412"
     inkscape:document-units="mm"
     inkscape:current-layer="g1117"
     showgrid="true"
     inkscape:pagecheckerboard="true"
     inkscape:showpageshadow="true"
     showborder="true"
     inkscape:window-width="2560"
     inkscape:window-height="1017"
     inkscape:window-x="-8"
     inkscape:window-y="-8"
     inkscape:window-maximized="1"
     inkscape:document-rotation="0"
     inkscape:snap-nodes="false">
    <inkscape:grid
       type="xygrid"
       id="grid4131"
       empcolor="#ff0000"
       empopacity="0.74509804"
       empspacing="4"
       units="mm"
       spacingx="25"
       spacingy="25"
       color="#2c9000"
       opacity="0.2745098"
       enabled="true" />
    <inkscape:grid
       type="xygrid"
       id="grid4133"
       units="mm"
       spacingx="1"
       spacingy="1"
       color="#0000ff"
       opacity="0.23529412"
       empcolor="#000000"
       empopacity="0.28235294"
       empspacing="10"
       enabled="false" />
    <inkscape:grid
       type="axonomgrid"
       id="grid4170"
       units="mm"
       empspacing="10"
       empcolor="#000000"
       empopacity="0.39215686"
       color="#3f3fff"
       opacity="0.31372549"
       enabled="false" />
  </sodipodi:namedview>
  <metadata
     id="metadata5">
    <rdf:RDF>
      <cc:Work
         rdf:about="">
        <dc:format>image/svg+xml</dc:format>
        <dc:type
           rdf:resource="http://purl.org/dc/dcmitype/StillImage" />
        <dc:title />
      </cc:Work>
    </rdf:RDF>
  </metadata>
  <g
     inkscape:groupmode="layer"
     id="layer2"
     inkscape:label="Layer 1">
    <g
       id="g1117"
       transform="translate(-160.66246,-133.66263)"
       style="fill:#e6e6e6;fill-opacity:1">
      <path
         style="color:#000000;font-style:normal;font-variant:normal;font-weight:normal;font-stretch:normal;font-size:medium;line-height:normal;font-family:sans-serif;font-variant-ligatures:normal;font-variant-position:normal;font-variant-caps:normal;font-variant-numeric:normal;font-variant-alternates:normal;font-variant-east-asian:normal;font-feature-settings:normal;font-variation-settings:normal;text-indent:0;text-align:start;text-decoration:none;text-decoration-line:none;text-decoration-style:solid;text-decoration-color:#000000;letter-spacing:normal;word-spacing:normal;text-transform:none;writing-mode:lr-tb;direction:ltr;text-orientation:mixed;dominant-baseline:auto;baseline-shift:baseline;text-anchor:start;white-space:normal;shape-padding:0;shape-margin:0;inline-size:0;clip-rule:nonzero;display:inline;overflow:visible;visibility:visible;opacity:1;isolation:auto;mix-blend-mode:normal;color-interpolation:sRGB;color-interpolation-filters:linearRGB;solid-color:#000000;solid-opacity:1;vector-effect:none;fill:#808080;fill-opacity:0.5;fill-rule:evenodd;stroke:none;stroke-width:0.48052;stroke-linecap:butt;stroke-linejoin:miter;stroke-miterlimit:4;stroke-dasharray:none;stroke-dashoffset:0;stroke-opacity:1;color-rendering:auto;image-rendering:auto;shape-rendering:auto;text-rendering:auto;enable-background:accumulate;stop-color:#000000;stop-opacity:1;filter:url(#filter869)"
         d="m 267.13149,242.78071 -5.22373,10.76339 c 13.568,6.58378 19.44138,22.56578 13.36971,36.371 -6.07164,13.80283 -21.82133,20.27213 -35.8414,14.72275 -14.0223,-5.55202 -21.07575,-21.05006 -16.05336,-35.26811 l -12.09145,3.38882 c -3.83813,13.28597 3.8525,35.1297 23.74024,43.00211 19.88482,7.87358 42.58714,-1.45097 51.19854,-21.02915 8.61141,-19.57819 0.14413,-42.6124 -19.09855,-51.95081 z"
         id="path1034-4"
         sodipodi:nodetypes="ccssccssc" />
      <path
         style="color:#000000;font-style:normal;font-variant:normal;font-weight:normal;font-stretch:normal;font-size:medium;line-height:normal;font-family:sans-serif;font-variant-ligatures:normal;font-variant-position:normal;font-variant-caps:normal;font-variant-numeric:normal;font-variant-alternates:normal;font-variant-east-asian:normal;font-feature-settings:normal;font-variation-settings:normal;text-indent:0;text-align:start;text-decoration:none;text-decoration-line:none;text-decoration-style:solid;text-decoration-color:#000000;letter-spacing:normal;word-spacing:normal;text-transform:none;writing-mode:lr-tb;direction:ltr;text-orientation:mixed;dominant-baseline:auto;baseline-shift:baseline;text-anchor:start;white-space:normal;shape-padding:0;shape-margin:0;inline-size:0;clip-rule:nonzero;display:inline;overflow:visible;visibility:visible;opacity:1;isolation:auto;mix-blend-mode:normal;color-interpolation:sRGB;color-interpolation-filters:linearRGB;solid-color:#000000;solid-opacity:1;vector-effect:none;fill:#808080;fill-opacity:0.75;fill-rule:evenodd;stroke:none;stroke-linecap:butt;stroke-linejoin:miter;stroke-miterlimit:4;stroke-dasharray:none;stroke-dashoffset:0;stroke-opacity:1;color-rendering:auto;image-rendering:auto;shape-rendering:auto;text-rendering:auto;enable-background:accumulate;stop-color:#000000;stop-opacity:1;filter:url(#filter873)"
         d="m 273.55469,240.76367 -1.77344,2.85742 c 17.26569,10.7124 24.33911,32.2464 16.79102,51.11133 -7.54809,18.86494 -27.52232,29.57389 -47.41211,25.41992 -19.8898,-4.15396 -33.90876,-21.96241 -33.27539,-42.27148 l -3.36329,-0.10547 c -0.68354,21.91827 14.4854,41.18682 35.95118,45.66992 21.46577,4.48311 43.07844,-7.10318 51.22461,-27.46289 8.14616,-20.35971 0.49116,-43.65755 -18.14258,-55.21875 z"
         id="path1034" />
      <path
         style="opacity:1;vector-effect:none;fill:#bfbfbf;fill-opacity:1;stroke:none;stroke-width:0.48052;stroke-linecap:butt;stroke-linejoin:miter;stroke-miterlimit:4;stroke-dasharray:none;stroke-dashoffset:0;stroke-opacity:1;filter:url(#filter877)"
         d="m 191.51125,300.57214 c 0.26931,-6.55131 2.8839,-12.97355 5.76722,-16.8184 2.88244,-3.84425 5.92652,-7.5001 9.61052,-11.05204 3.68331,-3.55133 6.62707,-6.11269 12.49295,-10.09171 5.86588,-3.97628 16.85448,-9.84151 23.06522,-12.97287 6.21036,-3.13135 9.60931,-4.32545 13.9343,-6.24793 4.32499,-1.91956 7.75937,-3.21433 12.01297,-5.28541 4.25439,-2.07073 8.23517,-3.68692 13.45587,-7.20789 5.22013,-3.52096 12.59757,-9.44096 17.29821,-14.41577 4.70064,-4.97461 8.64019,-9.95177 11.05272,-14.89558 2.41066,-4.94421 3.56605,-8.61122 3.84286,-13.93597 0.27778,-5.32475 -1.22296,-12.46658 -2.88244,-17.29821 -1.65947,-4.83127 -3.43078,-7.34948 -6.24692,-11.53334 -2.81525,-4.18115 -3.84339,-6.02822 -12.49429,-14.41573 5.24141,0.29217 12.14977,4.3708 14.89691,7.20784 2.74761,2.83914 6.72674,8.65091 6.72674,8.65091 0.0901,-2.43149 -0.98912,-4.38921 -2.88244,-8.65091 3.3635,3.36516 8.16866,8.17036 11.05258,14.41578 2.88339,6.24828 3.3632,8.17018 3.843,11.53334 0.48092,3.36334 0.0766,4.96399 0,7.68769 -0.0766,2.72416 -0.4798,8.65091 -0.4798,8.65091 1.88314,-1.98416 2.61187,-4.46433 3.8446,-6.72809 0,0 -0.036,4.70786 -0.48129,7.6877 -0.4448,2.97983 -1.22043,6.5466 -2.40259,10.09113 -1.18172,3.54541 -2.63102,7.56422 -4.80521,11.05273 -2.17298,3.4885 -8.16866,9.61051 -8.16866,9.61051 4.98293,-1.11572 7.9294,-5.67828 11.53334,-9.13071 -0.79522,2.6299 -2.31965,6.85795 -3.84565,9.13071 -1.52365,2.27276 -3.67609,5.32114 -6.24553,7.68769 -2.57132,2.36744 -5.45375,4.19559 -9.12985,6.24808 -3.67609,2.05141 -8.01398,3.81699 -12.97483,5.76507 -4.96085,1.94808 -11.52766,4.09312 -16.81821,5.76661 -5.2904,1.67349 -6.43399,1.49942 -14.89691,4.32392 -8.46221,2.8245 -27.3456,9.35417 -35.55769,13.45596 -8.21313,4.10178 -10.17342,5.88901 -14.4156,9.13004 -4.24218,3.24025 -7.74432,6.30541 -11.05244,10.09099 -3.30813,3.78432 -8.64966,12.49295 -8.64966,12.49295 z"
         id="path1014"
         sodipodi:nodetypes="czzzzzzzzzzzzczcczzzcczzzcczzzzzzzzzc" />
      <path
         style="opacity:1;vector-effect:none;fill:#808080;fill-opacity:0.80000001;stroke:none;stroke-width:0.48052;stroke-linecap:butt;stroke-linejoin:miter;stroke-miterlimit:4;stroke-dasharray:none;stroke-dashoffset:0;stroke-opacity:1;filter:url(#filter881)"
         d="m 199.6811,276.54585 c 0,0 8.92322,-14.00091 12.97276,-18.74106 4.05128,-4.7394 5.81056,-6.51902 10.57249,-10.09049 4.76193,-3.57148 11.84122,-7.43259 18.25906,-10.57032 6.41999,-3.13838 14.17767,-5.6817 20.18255,-8.17041 6.00466,-2.48795 10.26922,-3.64413 15.85688,-6.72647 5.5881,-3.08296 17.29821,-12.01301 17.29821,-12.01301 0,0 -2.35024,4.59987 -4.32391,7.2078 -1.97367,2.60793 -4.65528,5.41638 -7.68909,8.16894 -3.03373,2.75256 -6.39054,5.7793 -10.57027,8.16795 -4.18115,2.38945 -10.01095,4.00435 -14.41577,5.76782 -4.40482,1.76069 -7.26922,2.6734 -12.01315,4.80518 -4.74393,2.12887 -11.2838,5.10136 -16.3386,8.16778 -5.05418,3.06642 -8.94405,6.10724 -13.93501,10.09043 -4.9902,3.98623 -15.85615,13.93586 -15.85615,13.93586 z"
         id="path1016"
         sodipodi:nodetypes="czzzzzczzzzzzzc" />
      <path
         style="color:#000000;font-style:normal;font-variant:normal;font-weight:normal;font-stretch:normal;font-size:medium;line-height:normal;font-family:sans-serif;font-variant-ligatures:normal;font-variant-position:normal;font-variant-caps:normal;font-variant-numeric:normal;font-variant-alternates:normal;font-variant-east-asian:normal;font-feature-settings:normal;font-variation-settings:normal;text-indent:0;text-align:start;text-decoration:none;text-decoration-line:none;text-decoration-style:solid;text-decoration-color:#000000;letter-spacing:normal;word-spacing:normal;text-transform:none;writing-mode:lr-tb;direction:ltr;text-orientation:mixed;dominant-baseline:auto;baseline-shift:baseline;text-anchor:start;white-space:normal;shape-padding:0;shape-margin:0;inline-size:0;clip-rule:nonzero;display:inline;overflow:visible;visibility:visible;opacity:1;isolation:auto;mix-blend-mode:normal;color-interpolation:sRGB;color-interpolation-filters:linearRGB;solid-color:#000000;solid-opacity:1;vector-effect:none;fill:#bfbfbf;fill-opacity:1;fill-rule:evenodd;stroke:none;stroke-width:0.127164;stroke-linecap:butt;stroke-linejoin:miter;stroke-miterlimit:4;stroke-dasharray:none;stroke-dashoffset:0;stroke-opacity:1;color-rendering:auto;image-rendering:auto;shape-rendering:auto;text-rendering:auto;enable-background:accumulate;stop-color:#000000;stop-opacity:1;filter:url(#filter885)"
         d="m 252.15767,253.27705 c 11.96599,1.12224 21.5529,10.39399 23.07433,22.3158 1.52143,11.92181 -5.42966,23.30411 -16.73029,27.39557 -11.30063,4.09147 -23.92742,-0.20253 -30.3909,-10.33505 -6.46348,-10.13252 -5.03439,-23.39269 3.43961,-31.91535"
         id="path1036" />
      <path
         style="color:#000000;font-style:normal;font-variant:normal;font-weight:normal;font-stretch:normal;font-size:medium;line-height:normal;font-family:sans-serif;font-variant-ligatures:normal;font-variant-position:normal;font-variant-caps:normal;font-variant-numeric:normal;font-variant-alternates:normal;font-variant-east-asian:normal;font-feature-settings:normal;font-variation-settings:normal;text-indent:0;text-align:start;text-decoration:none;text-decoration-line:none;text-decoration-style:solid;text-decoration-color:#000000;letter-spacing:normal;word-spacing:normal;text-transform:none;writing-mode:lr-tb;direction:ltr;text-orientation:mixed;dominant-baseline:auto;baseline-shift:baseline;text-anchor:start;white-space:normal;shape-padding:0;shape-margin:0;inline-size:0;clip-rule:nonzero;display:inline;overflow:visible;visibility:visible;opacity:1;isolation:auto;mix-blend-mode:normal;color-interpolation:sRGB;color-interpolation-filters:linearRGB;solid-color:#000000;solid-opacity:1;vector-effect:none;fill:url(#linearGradient899);fill-opacity:1;fill-rule:evenodd;stroke:none;stroke-width:0.127164;stroke-linecap:butt;stroke-linejoin:miter;stroke-miterlimit:4;stroke-dasharray:none;stroke-dashoffset:0;stroke-opacity:1;color-rendering:auto;image-rendering:auto;shape-rendering:auto;text-rendering:auto;enable-background:accumulate;stop-color:#000000;stop-opacity:1;filter:url(#filter889)"
         d="m 260.6204,259.61219 c 5.79689,0.54366 10.05729,5.6809 9.51917,11.4783 -0.53812,5.79741 -5.67128,10.06272 -11.4692,9.53014 -5.79791,-0.53258 -10.06813,-5.66166 -9.54109,-11.46008 0.52704,-5.79842 5.65204,-10.07354 11.45096,-9.55204"
         id="path1036-7" />
    </g>
  </g>
</svg>
